<?xml version="1.0" encoding="UTF-8"?>
<svg data-bbox="266 166 144.476 55.942" xmlns="http://www.w3.org/2000/svg" viewBox="266 166 144.476 55.942" height="55.942" width="144.476" data-type="shape">
    <g>
        <g clip-path="url(#285ffab8-981e-4d42-b860-61ac68f9ec4e)">
            <path d="M410.476 166h-7.982a6.676 6.676 0 0 0-5.527 2.93l-10.674 15.746a.717.717 0 0 1-1.185 0l-10.674-15.746a6.672 6.672 0 0 0-5.527-2.93h-7.981l19.014 28.049-18.909 27.893h7.981a6.675 6.675 0 0 0 5.527-2.93l10.569-15.59a.718.718 0 0 1 1.185 0l10.569 15.59a6.672 6.672 0 0 0 5.527 2.93h7.982l-18.91-27.893L410.476 166Z"/>
            <path d="M344.52 171.722v50.22h3.814a5.722 5.722 0 0 0 5.723-5.722V166h-3.814a5.721 5.721 0 0 0-5.723 5.722Z"/>
            <path d="M337.525 166h-3.395a8.002 8.002 0 0 0-7.804 6.228l-7.594 33.385-6.647-31.164c-1.229-5.759-7.139-9.643-13.186-7.973-3.852 1.064-6.708 4.318-7.541 8.225l-6.579 30.87-7.58-33.34a8.009 8.009 0 0 0-7.807-6.231H266l12.722 55.94h4.82a9.272 9.272 0 0 0 9.067-7.337l8.133-38.166c.1-.474.525-.817 1.008-.817s.907.343 1.008.817l8.14 38.168a9.267 9.267 0 0 0 9.066 7.335h4.836L337.525 166Z"/>
        </g>
        <defs fill="none">
            <clipPath id="285ffab8-981e-4d42-b860-61ac68f9ec4e">
                <path transform="translate(266 166)" fill="#ffffff" d="M144.492 0v55.942H0V0h144.492z"/>
            </clipPath>
        </defs>
    </g>
</svg>
